<svg width="21" height="28" viewBox="0 0 21 28" fill="none" xmlns="http://www.w3.org/2000/svg">
<path d="M16.9529 15.0183C16.9245 11.5274 19.5335 9.82908 19.6528 9.75001C18.1752 7.36389 15.885 7.03787 15.0802 7.01187C13.1567 6.78766 11.2909 8.28671 10.311 8.28671C9.31161 8.28671 7.80271 7.03353 6.17648 7.07036C4.08378 7.1061 2.12604 8.4481 1.05231 10.532C-1.1636 14.7811 0.489041 21.0254 2.61205 24.46C3.67404 26.1431 4.91499 28.0202 6.53927 27.9541C8.12835 27.8826 8.72194 26.8331 10.6396 26.8331C12.5396 26.8331 13.097 27.9541 14.7536 27.9119C16.459 27.8826 17.5328 26.2222 18.5576 24.5249C19.7849 22.5981 20.2777 20.6983 20.2973 20.6008C20.2582 20.5856 16.9861 19.2014 16.9529 15.0183Z" fill="white"/>
<path d="M13.9102 5.0648C14.7705 3.89781 15.3591 2.31014 15.1957 0.698975C13.9505 0.758766 12.3934 1.63321 11.4967 2.77459C10.7034 3.78036 9.99467 5.42889 10.1777 6.97919C11.5764 7.09237 13.0125 6.21365 13.9102 5.0648Z" fill="white"/>
</svg>
